<?xml version="1.0" encoding="UTF-8"?>
<svg id="Layer_1" data-name="Layer 1" xmlns="http://www.w3.org/2000/svg" viewBox="0 0 1080 1080">
  <defs>
    <style>
      .cls-1 {
        fill: #c6c6c6;
      }
    </style>
  </defs>
  <path class="cls-1" d="M539.5,80.35c-253.15,0-459.09,205.94-459.09,459.08s205.94,459.08,459.09,459.08,459.09-205.94,459.09-459.08S792.63,80.35,539.5,80.35ZM120.37,539.43c0-153.84,83.33-288.57,207.21-361.47v151.21h76l-75.46,148.04v34.75h83.9v134.23h-36.63v-77.77h-47.81v332.48c-123.88-72.91-207.21-207.63-207.21-361.47ZM539.5,958.56c-58.22,0-113.69-11.94-164.12-33.48v-239.7l36.63-.3v100.89h47.81v-281.68h-.54v-27.08h-75.02l75.02-148.04v-34.75h-90.51v-137.74c52.17-23.36,109.96-36.38,170.72-36.38,231.12,0,419.14,188.02,419.14,419.13s-188.02,419.13-419.14,419.13Z"/>
  <path class="cls-1" d="M556.8,751.21h-35.8v-182.79h-48.22v187.69c0,9.49,3.41,16.84,10.24,22.04,6.83,5.21,16.38,7.81,28.66,7.81h54.02c12.42,0,22.07-2.6,28.97-7.81,6.9-5.21,10.35-12.55,10.35-22.04v-187.69h-48.22v182.79Z"/>
  <path class="cls-1" d="M740.31,576.23c-6.9-5.2-16.55-7.81-28.97-7.81h-92.93v217.55h88.99c14.62,0,25.49-2.47,32.59-7.42,7.1-4.95,10.66-12.53,10.66-22.73v-85.58h-20.7c7.17-1.84,12.42-4.85,15.73-9.03,3.31-4.19,4.97-9.95,4.97-17.3v-45.77c0-9.39-3.45-16.69-10.35-21.89ZM704.1,752.13h-39.12v-70.12l39.12.16v69.96ZM704.1,645.89l-39.12-.46v-43.48h39.12v43.94Z"/>
  <polygon class="cls-1" points="472.43 511.96 605.02 511.96 605.02 477.21 520.94 477.17 520.94 424.57 565.57 424.57 565.57 385.32 520.94 385.32 520.94 329.13 605.02 329.17 605.02 294.41 472.43 294.41 472.43 511.96"/>
  <path class="cls-1" d="M740.35,302.22c-7.39-5.2-17.66-7.81-30.82-7.81h-50.97c-13.02,0-23.14,2.6-30.38,7.81-7.24,5.21-10.86,12.51-10.86,21.89v157.99c0,9.49,3.62,16.84,10.86,22.04,7.24,5.21,17.36,7.81,30.38,7.81h50.97c13.31,0,23.62-2.6,30.93-7.81,7.31-5.21,10.97-12.55,10.97-22.04v-40.27h-51.77v35.68h-31.23v-148.65h31.23v27.51h51.77v-32.26c0-9.39-3.7-16.69-11.08-21.89Z"/>
</svg>