<svg width="179" height="50" viewBox="0 0 179 50" fill="none" xmlns="http://www.w3.org/2000/svg">
<path d="M156.353 49.7919C153.195 49.7919 150.721 48.9386 148.929 47.2319C147.179 45.5253 146.305 43.1359 146.305 40.0639C146.305 36.9919 147.329 34.7733 149.377 33.4079C151.425 31.9999 154.049 31.2959 157.249 31.2959C159.126 31.2959 160.833 31.4239 162.369 31.6799C163.905 31.9359 165.291 32.2986 166.529 32.7679H166.721V31.8079C166.721 30.8266 166.358 30.0586 165.633 29.5039C164.907 28.9066 163.99 28.6293 162.881 28.6719C161.814 28.6719 160.897 28.7359 160.129 28.8639C159.403 28.9919 158.486 29.2053 157.377 29.5039C155.329 30.0159 153.558 29.9733 152.065 29.3759C150.571 28.7786 149.547 27.6053 148.993 25.8559C148.481 24.0213 148.587 22.4853 149.313 21.2479C150.081 20.0106 151.233 19.0506 152.769 18.3679C154.091 17.7279 155.563 17.1946 157.185 16.7679C158.849 16.3413 160.641 16.1279 162.561 16.1279C168.15 16.1279 172.246 17.4933 174.849 20.2239C177.494 22.9119 178.817 27.4346 178.817 33.7919V43.7119C178.817 45.4613 178.283 46.9119 177.217 48.0639C176.15 49.2159 174.678 49.7919 172.801 49.7919C170.753 49.7919 169.217 49.2159 168.193 48.0639C167.211 46.9119 166.721 45.5039 166.721 43.8399V42.3679H165.441C165.441 43.4773 165.227 44.6079 164.801 45.7599C164.417 46.9119 163.585 47.8719 162.305 48.6399C161.067 49.4079 159.083 49.7919 156.353 49.7919ZM156.993 35.7759C156.993 36.5013 157.249 37.0133 157.761 37.3119C158.315 37.6106 159.489 37.7599 161.281 37.7599C162.902 37.7599 164.033 37.6106 164.673 37.3119C165.313 37.0133 165.633 36.5013 165.633 35.7759C165.633 35.0933 165.313 34.6239 164.673 34.3679C164.033 34.0693 162.902 33.9199 161.281 33.9199C159.489 33.9199 158.315 34.0693 157.761 34.3679C157.249 34.6239 156.993 35.0933 156.993 35.7759Z" fill="#FF4A26"/>
<path d="M132.253 49.984C129.992 49.984 127.944 49.472 126.109 48.448C124.317 47.424 122.909 45.9734 121.885 44.096C120.861 42.176 120.349 39.936 120.349 37.376V26.112L117.981 26.432C116.701 26.6027 115.571 26.1547 114.589 25.088C113.608 24.0214 113.117 22.6774 113.117 21.056C113.117 19.4347 113.608 18.112 114.589 17.088C115.571 16.0214 116.701 15.5734 117.981 15.744L120.349 16.064L120.285 11.712C120.243 10.0054 120.733 8.66138 121.757 7.68004C122.781 6.65604 124.275 6.14404 126.237 6.14404C128.2 6.14404 129.715 6.65604 130.781 7.68004C131.848 8.66138 132.339 10.0054 132.253 11.712L132.125 16.064L135.517 15.616C137.821 15.2747 139.571 15.7014 140.765 16.896C141.96 18.048 142.557 19.4347 142.557 21.056C142.557 22.6774 141.96 24.0854 140.765 25.28C139.613 26.432 137.928 26.8587 135.709 26.56L132.125 26.112V35.648C132.125 36.2027 132.317 36.7147 132.701 37.184C133.085 37.6107 133.555 37.7387 134.109 37.568C134.749 37.3974 135.411 37.0347 136.093 36.48C136.819 35.9254 137.736 35.648 138.845 35.648C140.509 35.648 141.789 36.2454 142.685 37.44C143.581 38.6347 144.029 40.1067 144.029 41.856C144.029 43.2214 143.539 44.544 142.557 45.824C141.619 47.0614 140.275 48.064 138.525 48.832C136.776 49.6 134.685 49.984 132.253 49.984Z" fill="#FF4A26"/>
<path d="M96.0017 49.792C94.2097 49.792 92.7377 49.2373 91.5857 48.128C90.4764 46.976 89.9217 45.5467 89.9217 43.84V29.568C88.8124 29.824 87.8097 29.6747 86.9137 29.12C86.0177 28.5653 85.2924 27.7333 84.7377 26.624C84.2257 25.5147 83.9697 24.2987 83.9697 22.976C83.9697 21.6533 84.2471 20.4373 84.8017 19.328C85.3564 18.176 86.0817 17.3013 86.9777 16.704C87.9164 16.1067 88.9404 15.9787 90.0497 16.32C90.2631 13.1627 90.7751 10.368 91.5857 7.936C92.3964 5.46134 93.6337 3.52 95.2977 2.112C97.0044 0.704 99.2231 0 101.954 0C104.3 0 106.178 0.490667 107.586 1.472C108.994 2.41067 109.975 3.584 110.53 4.992C111.127 6.4 111.319 7.82933 111.106 9.28C110.892 10.688 110.316 11.9253 109.378 12.992C108.439 14.016 107.052 14.528 105.218 14.528C103.938 14.528 102.871 14.272 102.018 13.76C101.164 13.248 100.439 12.6293 99.8417 11.904C99.2871 11.136 98.7964 10.4107 98.3697 9.728C97.3031 8.02134 96.2151 7.44534 95.1057 8C94.5511 8.29867 94.2524 8.78933 94.2097 9.472C94.1671 10.112 94.3804 10.8587 94.8497 11.712L96.2577 14.144C96.9831 15.3387 97.7511 16.128 98.5617 16.512C99.3724 16.8533 100.396 16.9387 101.634 16.768L104.706 16.32C106.668 16.0213 108.268 16.5547 109.506 17.92C110.743 19.2853 111.362 20.9707 111.362 22.976C111.362 25.0667 110.722 26.752 109.442 28.032C108.204 29.2693 106.668 29.7813 104.834 29.568L102.146 29.248V43.84C102.146 45.5467 101.591 46.976 100.482 48.128C99.3724 49.2373 97.8791 49.792 96.0017 49.792Z" fill="#FF4A26"/>
<path d="M67.1965 49.92C62.2045 49.92 58.2152 48.448 55.2285 45.504C52.2845 42.5173 50.8125 38.3146 50.8125 32.896C50.8125 29.568 51.4952 26.6453 52.8605 24.128C54.2258 21.6106 56.1245 19.648 58.5565 18.24C61.0312 16.7893 63.9112 16.064 67.1965 16.064C70.8658 16.064 73.9165 16.7893 76.3485 18.24C78.7805 19.648 80.5938 21.6106 81.7885 24.128C83.0258 26.6453 83.6445 29.568 83.6445 32.896C83.6445 38.3146 82.2792 42.5173 79.5485 45.504C76.8605 48.448 72.7432 49.92 67.1965 49.92ZM58.4285 31.808C58.4285 33.1306 59.0898 34.0693 60.4125 34.624C61.7352 35.136 63.9965 35.392 67.1965 35.392C70.3965 35.392 72.6578 35.136 73.9805 34.624C75.3032 34.0693 75.9645 33.1306 75.9645 31.808C75.9645 30.528 75.3032 29.632 73.9805 29.12C72.6578 28.608 70.3965 28.352 67.1965 28.352C63.9965 28.352 61.7352 28.608 60.4125 29.12C59.0898 29.632 58.4285 30.528 58.4285 31.808Z" fill="#FF4A26"/>
<path d="M31.509 49.92C26.517 49.92 22.5277 48.448 19.541 45.504C16.597 42.5173 15.125 38.3146 15.125 32.896C15.125 29.568 15.8077 26.6453 17.173 24.128C18.5383 21.6106 20.437 19.648 22.869 18.24C25.3437 16.7893 28.2237 16.064 31.509 16.064C35.1783 16.064 38.229 16.7893 40.661 18.24C43.093 19.648 44.9063 21.6106 46.101 24.128C47.3383 26.6453 47.957 29.568 47.957 32.896C47.957 38.3146 46.5917 42.5173 43.861 45.504C41.173 48.448 37.0557 49.92 31.509 49.92ZM22.741 31.808C22.741 33.1306 23.4023 34.0693 24.725 34.624C26.0477 35.136 28.309 35.392 31.509 35.392C34.709 35.392 36.9703 35.136 38.293 34.624C39.6157 34.0693 40.277 33.1306 40.277 31.808C40.277 30.528 39.6157 29.632 38.293 29.12C36.9703 28.608 34.709 28.352 31.509 28.352C28.309 28.352 26.0477 28.608 24.725 29.12C23.4023 29.632 22.741 30.528 22.741 31.808Z" fill="#FF4A26"/>
<path d="M6.272 49.792C4.18133 49.792 2.60267 49.2373 1.536 48.128C0.512 47.0187 0 45.632 0 43.968V6.848C0 5.01333 0.512 3.49866 1.536 2.304C2.60267 1.06666 4.18133 0.447998 6.272 0.447998C8.14933 0.447998 9.6 1.06666 10.624 2.304C11.648 3.49866 12.16 4.97066 12.16 6.72V43.968C12.16 45.632 11.648 47.0187 10.624 48.128C9.6 49.2373 8.14933 49.792 6.272 49.792Z" fill="#FF4A26"/>
</svg>
