<?xml version="1.0" encoding="utf-8"?>
<svg id="Layer_1" data-name="Layer 1" xmlns="http://www.w3.org/2000/svg" viewBox="0 0 792 612"><defs><style>.cls-1{fill:#231f20;}.cls-2{fill:#010101;}.cls-3{fill:#c7d9cd;}.cls-4{fill:#0a1c2b;}.cls-5{fill:#00b2e2;}.cls-6{fill:#fcb333;}.cls-7{fill:#b6e0da;}.cls-8{fill:#624157;}.cls-9{fill:#e23f26;}.cls-10{fill:#5aa846;}</style></defs><path class="cls-1" d="M419.3,440.17c-1.26,9.13-7.07,15.68-16.57,15.68-10,0-17.06-8.18-17.06-19.43,0-9.13,4.91-20.06,17.74-20.06,10,0,14.89,7.55,15,12.19H417.4c-.42-5.43-5.8-11.13-14-11.13-12.4,0-16.68,11.19-16.68,19,0,9.56,5.81,18.37,16,18.37,9,0,14.41-6.28,15.52-14.62Z"/><path class="cls-1" d="M423.37,436.21c.27-5.12,3.64-9,10.35-9,4.8,0,8.82,1.85,9,7.76v17.27c0,2.06,2,1.84,3.44,1.69V455c-.53.05-1.06.05-1.59.05-1.53,0-2.9-.63-2.9-2.69v-3.53h-.11c-1.11,3.48-5.12,6.81-10.77,6.81-5.43,0-9.08-2.49-9.08-7.34,0-6.71,4.81-7.87,9.35-8.13,7.44-.43,10.61-.32,10.61-4.39,0-3.22-.69-7.49-7.92-7.49-5.7,0-8.92,2.9-9.29,8Zm18.27,2.8h-.11c-1.37,2-6.23,1.9-10.5,2.16s-8.29,1.27-8.29,7.08c0,3.11,2,6.28,7.92,6.28,7.07,0,11-5.17,11-10.51Z"/><path class="cls-1" d="M448.82,427.82h1.06v6.7h.1c.95-4.17,4.44-7.34,9.77-7.34,5.65,0,9.66,3.43,9.66,9.77v18h-1.06V437.11c0-6.29-4-8.87-8.6-8.87-6.5,0-9.87,5.28-9.87,11.35V455h-1.06Z"/><path class="cls-1" d="M486,427.18c7.87,0,12.2,6.81,12.2,14.2S494,455.59,486,455.59s-12.2-6.76-12.2-14.21S478.07,427.18,486,427.18Zm0,27.35c7.24,0,11.14-6.23,11.14-13.15,0-6.75-3.9-13.14-11.14-13.14s-11.19,6.39-11.19,13.14C474.85,448.3,478.7,454.53,486,454.53Z"/><path class="cls-1" d="M503.68,464.3h-1.06V427.82h1.06v7.6h.1a11.08,11.08,0,0,1,10.88-8.24c7.18,0,11.56,6,11.56,14.15,0,7.6-4.12,14.26-11.56,14.26-5.76,0-9.61-3.33-10.88-8.24h-.1Zm21.49-23c0-7-3.49-13.09-10.51-13.09s-11,6.07-11,13.09c0,8.45,4.38,13.2,11,13.2C522.05,454.53,525.17,447.61,525.17,441.33Z"/><path class="cls-1" d="M549.08,427.82h1.11L537.68,460.5c-1.43,3.64-4,3.8-7.18,3.8v-1.06c3.59,0,5.07-.21,6.33-3.48l2-5.07-11.35-26.87h1.16l10.77,25.71Z"/><path class="cls-2" d="M251.9,417.24h26.88v3.13l-24.57,31.17h25.1v3H250.23v-3.13l24.58-31.17H251.9Z"/><path class="cls-2" d="M300.31,436.06c-.89-4-3.29-6.48-7.63-6.48-6.28,0-9.47,5.8-9.47,11.5s3.19,11.51,9.47,11.51a8.12,8.12,0,0,0,7.84-7.69h3.29c-.88,6.54-5.07,10.46-11.13,10.46-8.21,0-12.76-6.54-12.76-14.28s4.55-14.27,12.76-14.27c5.8,0,10.14,3,10.93,9.25Z"/><path class="cls-2" d="M307.55,435.85c.36-6.32,4.7-9,10.93-9,4.75,0,9.93,1.41,9.93,8.68v14.33a1.73,1.73,0,0,0,1.94,2,2.42,2.42,0,0,0,1-.21v2.77a9.09,9.09,0,0,1-2.14.21c-3.35,0-3.87-1.93-3.87-4.7h-.11c-2.35,3.5-4.6,5.49-9.83,5.49-5,0-9-2.46-9-7.9,0-7.53,7.37-7.84,14.48-8.68,2.72-.26,4.24-.73,4.24-3.66,0-4.44-3.14-5.54-7.06-5.54-4.13,0-7.06,1.88-7.22,6.27Zm17.57,4H325c-.42.78-1.88,1-2.77,1.2-5.59,1-12.55,1-12.55,6.22,0,3.3,2.88,5.34,6,5.34,5.08,0,9.42-3.19,9.42-8.47Z"/><path class="cls-2" d="M350.4,435.49c-.15-4.08-3.29-5.91-7.06-5.91-2.92,0-6.38,1.15-6.38,4.65,0,2.88,3.3,4,5.6,4.55l4.39,1c3.77.58,7.69,2.78,7.69,7.48,0,5.86-5.8,8.11-10.82,8.11-6.33,0-10.52-2.88-11.09-9.52H336c.26,4.45,3.56,6.75,8,6.75,3.14,0,7.38-1.36,7.38-5.13,0-3.14-2.93-4.18-5.91-4.91l-4.24-.95c-4.29-1.09-7.53-2.66-7.53-7.21,0-5.49,5.39-7.58,10.15-7.58,5.43,0,9.62,2.82,9.88,8.68Z"/><path class="cls-2" d="M358.64,417.24h3.3v15h.1a9.2,9.2,0,0,1,8.63-5.43c7.58,0,9.89,4,9.89,10.4v17.36h-3.3V437.74c0-4.61-1.52-8.16-6.85-8.16s-8.31,4-8.47,9.25v15.74h-3.3Z"/><circle class="cls-3" cx="455.32" cy="226.04" r="15.51"/><circle class="cls-4" cx="425.92" cy="327.13" r="43.65"/><circle class="cls-5" cx="478.09" cy="210.53" r="37.23"/><circle class="cls-6" cx="447.07" cy="207.98" r="31.02"/><circle class="cls-4" cx="354.94" cy="180.35" r="44.47"/><circle class="cls-7" cx="328.53" cy="241.72" r="43.43"/><circle class="cls-8" cx="410.3" cy="184.78" r="23.89"/><circle class="cls-9" cx="470.83" cy="270.51" r="44.47"/><circle class="cls-10" cx="394.15" cy="256.02" r="67.13"/><circle class="cls-6" cx="351.12" cy="307.73" r="51.7"/></svg>