<svg width="264" height="65" viewBox="0 0 264 65" fill="none" xmlns="http://www.w3.org/2000/svg">
<path opacity="0.5" fill-rule="evenodd" clip-rule="evenodd" d="M0.748535 26.3781L2.53808 19.5738L15.1415 12.324V21.4074L0.748535 30.4222V26.3781Z" fill="#1C60DD"/>
<path opacity="0.7" fill-rule="evenodd" clip-rule="evenodd" d="M6.71338 26.6174L20.9058 17.8489V25.0498C20.9058 25.0498 20.6901 27.4266 19.6526 27.8693C18.8855 28.1803 6.71719 35.3344 6.71719 35.3344L6.71338 26.6174Z" fill="#1C60DD"/>
<path opacity="0.9" fill-rule="evenodd" clip-rule="evenodd" d="M14.4429 30.8714L27.0595 23.4834V30.6834C27.0595 30.6834 27.0595 32.6739 25.8063 33.3741C24.9976 33.8037 14.4457 39.9057 14.4457 39.9057L14.4429 30.8714Z" fill="#1C60DD"/>
<path opacity="0.5" fill-rule="evenodd" clip-rule="evenodd" d="M19.6716 9.7516L26.6084 5.30811V14.3868L19.6782 18.601L19.6716 9.7516Z" fill="#1C60DD"/>
<path opacity="0.7" fill-rule="evenodd" clip-rule="evenodd" d="M25.3202 15.1611L32.2911 11.0701V20.4683L25.3174 24.4926L25.3202 15.1611Z" fill="#1C60DD"/>
<path opacity="0.5" fill-rule="evenodd" clip-rule="evenodd" d="M30.6643 2.8862L35.4116 0V6.26109C35.4116 6.26109 35.4116 9.39351 34.1583 10.0204C33.9171 10.1473 30.6898 12.0138 30.6898 12.0138L30.6643 2.8862Z" fill="#1C60DD"/>
<path opacity="0.9" fill-rule="evenodd" clip-rule="evenodd" d="M30.7903 21.2203L35.5195 18.4009L35.4107 25.5952C35.4107 25.5952 35.5195 27.4927 34.1576 28.4147C33.8436 28.692 30.6229 30.2502 30.6797 30.2812C30.7364 30.3122 30.7714 20.9657 30.7903 21.2203Z" fill="#1C60DD"/>
<path opacity="0.7" fill-rule="evenodd" clip-rule="evenodd" d="M36.3577 8.76598L40.1413 6.27734C40.1413 6.27734 40.179 10.0103 40.1413 12.5394C40.1133 13.3076 39.9331 14.0627 39.6103 14.7614C39.2879 15.4601 38.8297 16.0886 38.2616 16.6107C38.2616 16.6107 36.3048 17.8212 36.3644 17.855C36.424 17.8889 36.3577 8.76598 36.3577 8.76598Z" fill="#1C60DD"/>
<path fill-rule="evenodd" clip-rule="evenodd" d="M15.1418 12.3171C15.0832 12.4393 3.57131 18.1159 1.82622 20.0632C2.71626 19.317 1.06954 20.8 0.880371 23.0339L1.42802 44.0286C1.42802 44.0286 0.54838 46.8281 4.87279 49.298C7.95626 51.0591 25.7911 61.9538 27.9807 62.9774C30.1704 64.001 30.7351 62.3834 30.7351 62.3834V42.0054C30.6878 41.9498 31.3886 38.7854 27.6355 36.3993C26.9148 35.777 3.80493 25.3177 2.82314 22.0246C1.76852 18.488 15.1418 13.2316 15.1418 12.3171Z" fill="white"/>
<path fill-rule="evenodd" clip-rule="evenodd" d="M29.6589 41.822L30.7841 41.0127V62.7226C30.7841 62.7226 30.2413 63.8082 29.6589 63.9116C29.5898 63.8759 29.6589 41.822 29.6589 41.822Z" fill="#C0C9D7"/>
<path d="M2.03061 22.739C2.19051 22.9913 2.37386 23.2283 2.57825 23.4467C2.347 23.193 2.15278 22.9082 2.00129 22.6008C0.639269 19.1103 10.5139 15.1856 14.6283 12.5635C14.6283 12.5635 4.64114 17.491 2.66149 19.2099C0.911673 20.7287 0.785875 21.6469 0.785875 21.6469L0.574951 22.9298C0.61846 22.3076 0.632648 21.7521 0.785875 21.6469C0.766958 21.755 2.01453 22.5764 2.03061 22.739Z" fill="#1C60DD"/>
<path d="M26.5825 37.2621C25.7709 36.5808 15.4139 31.8752 8.25195 27.6196C8.67759 27.8865 9.05686 28.1206 9.3548 28.316L26.3195 62.2135C26.677 62.4015 26.9466 62.5528 27.1528 62.6488L29.6593 63.8931V42.1182C29.6281 42.0939 29.909 39.0872 26.5825 37.2621Z" fill="#1C60DD"/>
<path opacity="0.3" d="M1.29621 46.853C0.908487 46.0592 0.647525 45.2102 0.522705 44.3362C0.56078 45.227 0.827022 46.0932 1.29621 46.853Z" fill="url(#paint0_linear_302_4738)"/>
<path d="M8.25219 27.6195C5.71733 26.129 3.61755 24.661 2.57712 23.4477C2.37301 23.2289 2.18997 22.9917 2.03042 22.7391C2.0115 22.5765 0.800818 21.6404 0.832977 21.5286C0.67975 21.6348 0.582327 22.2936 0.538818 22.9195L0.571923 44.3316C0.694883 45.9171 0.817843 45.9781 1.24158 46.8531C1.86111 47.8069 2.16757 48.1688 3.27232 49.1482C5.86584 50.7223 21.9244 59.8488 26.3425 62.2117L9.35504 28.3066L8.25219 27.6195Z" fill="#1C60DD"/>
<path opacity="0.2" d="M8.22382 27.6044C5.68895 26.1139 3.58917 24.6459 2.54874 23.4326C2.35368 23.2129 2.18012 22.9753 2.03042 22.723C2.0115 22.5614 0.796089 21.6253 0.832976 21.5134C0.757309 21.5858 0.616378 22.4241 0.572869 23.0491L0.538818 44.3945C0.600298 45.728 0.862296 46.0973 1.2482 46.8924C1.80058 47.8068 2.51091 48.4901 3.31204 49.1329C5.9065 50.707 21.897 59.8339 26.315 62.1964L9.32666 28.2915L8.22382 27.6044Z" fill="url(#paint1_linear_302_4738)"/>
<path fill-rule="evenodd" clip-rule="evenodd" d="M26.0071 46.0843L22.4819 43.9226C21.8557 43.5617 21.2523 43.7949 21.5616 44.433V50.2496C21.712 50.4649 22.0156 51.161 21.8747 51.5127C21.3696 51.4882 23.8799 53.5801 25.2986 54.3688C25.712 54.599 26.4828 54.695 26.4233 53.7465V46.8369C26.425 46.6867 26.3872 46.5381 26.3135 46.4067C26.2408 46.275 26.1353 46.1638 26.0071 46.0843Z" fill="#B0B5BE"/>
<path fill-rule="evenodd" clip-rule="evenodd" d="M25.8561 46.4329C25.3076 45.7543 23.4745 44.7122 22.2307 43.8204C21.9177 43.593 21.3728 43.7544 21.3795 44.1314C21.458 48.5326 21.474 50.5578 21.7304 51.4197C21.9195 52.0777 23.9957 53.4601 25.1761 54.239C25.527 54.4752 26.0009 54.5315 26.016 54.1049C26.0822 52.2542 26.016 47.9612 26.016 46.8635C26.0106 46.7055 25.9534 46.5539 25.8533 46.4312L25.8561 46.4329Z" fill="white"/>
<path d="M40.1047 34.3183C40.1047 40.9616 45.1862 45.6027 51.4502 45.6027C56.0846 45.6027 60.0795 43.314 61.7732 38.9909H57.3949C56.2123 41.3433 54.1032 42.4558 51.4502 42.4558C47.0399 42.4558 43.8439 39.309 43.8439 34.3183C43.8439 29.3277 47.0399 26.2126 51.4502 26.2126C54.1032 26.2126 56.2123 27.3252 57.3949 29.6774H61.7732C60.0795 25.3544 56.0846 23.0339 51.4502 23.0339C45.1862 23.0339 40.1047 27.7066 40.1047 34.3183Z" fill="#0D111D"/>
<path d="M81.8583 36.6389C81.8583 31.1397 77.8954 27.6113 72.8776 27.6113C67.8602 27.6113 63.897 31.1397 63.897 36.6389C63.897 42.1378 67.7001 45.6981 72.7179 45.6981C77.7674 45.6981 81.8583 42.1378 81.8583 36.6389ZM67.6045 36.6389C67.6045 32.6654 70.0653 30.7582 72.8139 30.7582C75.5302 30.7582 78.1191 32.6654 78.1191 36.6389C78.1191 40.6123 75.4345 42.5513 72.7179 42.5513C69.9693 42.5513 67.6045 40.6123 67.6045 36.6389Z" fill="#0D111D"/>
<path d="M84.5011 45.412H88.1446V27.8973H84.5011V45.412ZM86.3548 25.5769C87.6331 25.5769 88.656 24.5597 88.656 23.2565C88.656 21.9532 87.6331 20.936 86.3548 20.936C85.0445 20.936 84.022 21.9532 84.022 23.2565C84.022 24.5597 85.0445 25.5769 86.3548 25.5769Z" fill="#0D111D"/>
<path d="M104.465 45.4121H108.077V35.0814C108.077 30.186 104.977 27.6113 100.854 27.6113C98.7445 27.6113 96.7947 28.4696 95.6125 29.9V27.8974H91.969V45.4121H95.6125V35.6214C95.6125 32.4112 97.3702 30.7582 100.055 30.7582C102.707 30.7582 104.465 32.4112 104.465 35.6214V45.4121Z" fill="#0D111D"/>
<path d="M115.409 33.4919V26.2763H119.436C122.28 26.2763 123.558 27.6113 123.558 29.8999C123.558 32.125 122.28 33.4919 119.436 33.4919H115.409ZM127.297 29.8999C127.297 26.3081 124.709 23.3201 119.436 23.3201H111.765V45.412H115.409V36.4479H119.436C125.22 36.4479 127.297 33.0469 127.297 29.8999Z" fill="#0D111D"/>
<path d="M128.599 36.5753C128.599 41.9788 132.275 45.6981 136.845 45.6981C139.785 45.6981 141.894 44.2995 143.013 42.8053V45.4121H146.688V27.8974H143.013V30.4404C141.926 29.01 139.881 27.6113 136.909 27.6113C132.275 27.6113 128.599 31.1714 128.599 36.5753ZM143.013 36.6389C143.013 40.4216 140.424 42.5513 137.676 42.5513C134.959 42.5513 132.339 40.3579 132.339 36.5753C132.339 32.7926 134.959 30.7582 137.676 30.7582C140.424 30.7582 143.013 32.8879 143.013 36.6389Z" fill="#0D111D"/>
<path d="M157.45 41.2481L152.496 27.8975H148.438L155.373 45.1261L151.793 53.6448H155.564L166.367 27.8975H162.596L157.45 41.2481Z" fill="#0D111D"/>
<path d="M193.118 45.4121H196.729V35.0814C196.729 30.186 193.597 27.6113 189.474 27.6113C186.918 27.6113 184.425 28.9464 183.338 31.0761C182.124 28.7875 179.791 27.6113 177.01 27.6113C174.901 27.6113 172.983 28.4696 171.801 29.9V27.8974H168.158V45.4121H171.801V35.6214C171.801 32.4112 173.559 30.7582 176.243 30.7582C178.896 30.7582 180.654 32.4112 180.654 35.6214V45.4121H184.265V35.6214C184.265 32.4112 186.023 30.7582 188.708 30.7582C191.36 30.7582 193.118 32.4112 193.118 35.6214V45.4121Z" fill="#0D111D"/>
<path d="M207.821 30.6629C210.537 30.6629 212.679 32.3793 212.743 35.0814H202.995C203.378 32.3158 205.36 30.6629 207.821 30.6629ZM216.067 40.1989H212.135C211.464 41.5658 210.218 42.6466 207.981 42.6466C205.296 42.6466 203.219 40.8983 202.963 38.0055H216.418C216.514 37.4017 216.546 36.8296 216.546 36.2255C216.546 31.0761 212.998 27.6113 207.981 27.6113C202.771 27.6113 199.192 31.1397 199.192 36.6389C199.192 42.1378 202.931 45.6981 207.981 45.6981C212.295 45.6981 215.076 43.2504 216.067 40.1989Z" fill="#0D111D"/>
<path d="M231.669 45.4121H235.281V35.0814C235.281 30.186 232.18 27.6113 228.058 27.6113C225.948 27.6113 223.999 28.4696 222.816 29.9V27.8974H219.173V45.4121H222.816V35.6214C222.816 32.4112 224.574 30.7582 227.259 30.7582C229.911 30.7582 231.669 32.4112 231.669 35.6214V45.4121Z" fill="#0D111D"/>
<path d="M239.544 40.5484C239.544 44.1087 241.494 45.4119 244.626 45.4119H247.502V42.3921H245.265C243.731 42.3921 243.219 41.8517 243.219 40.5484V30.8534H247.502V27.8973H243.219V23.5425H239.544V27.8973H237.467V30.8534H239.544V40.5484Z" fill="#0D111D"/>
<path d="M263.037 40.5169C262.845 34.1912 252.905 36.1619 252.905 32.6337C252.905 31.4575 253.928 30.6629 255.878 30.6629C257.859 30.6629 259.042 31.7118 259.17 33.2376H262.813C262.621 29.741 260 27.6113 256.006 27.6113C251.851 27.6113 249.23 29.8682 249.23 32.6654C249.23 39.0863 259.457 37.1157 259.457 40.5486C259.457 41.7565 258.339 42.6466 256.229 42.6466C254.216 42.6466 252.841 41.4704 252.714 40.0398H248.943C249.102 43.2187 252.075 45.6981 256.293 45.6981C260.448 45.6981 263.037 43.4731 263.037 40.5169Z" fill="#0D111D"/>
<rect x="208.326" y="49.2424" width="53.1818" height="15.7576" rx="7.87879" fill="#1C60DD"/>
<path d="M247.51 53.9526H249.212L249.536 56.9418C249.582 57.3457 249.605 57.9093 249.605 58.6326H249.651C249.728 58.4364 249.813 58.2075 249.905 57.9459C249.997 57.6804 250.122 57.3842 250.28 57.0572L251.78 53.9526H253.667L249.743 61.3275C249.062 62.6047 248.133 63.2433 246.956 63.2433C246.61 63.2433 246.327 63.2068 246.108 63.1337V61.7487C246.37 61.7987 246.593 61.8237 246.777 61.8237C247.1 61.8237 247.383 61.7314 247.626 61.5467C247.872 61.3621 248.099 61.0755 248.307 60.6869L248.457 60.4042L247.51 53.9526Z" fill="white"/>
<path d="M244.483 60.5194C243.709 60.5194 243.115 60.3136 242.699 59.902C242.288 59.4865 242.082 58.9017 242.082 58.1477C242.082 57.3321 242.224 56.5916 242.509 55.926C242.798 55.2566 243.202 54.7411 243.721 54.3795C244.24 54.014 244.833 53.8313 245.498 53.8313C246.198 53.8313 246.829 53.9698 247.391 54.2468L246.86 55.5682C246.652 55.4798 246.448 55.4028 246.248 55.3374C246.048 55.272 245.821 55.2393 245.567 55.2393C245.24 55.2393 244.944 55.3624 244.679 55.6086C244.417 55.8549 244.211 56.1934 244.061 56.6243C243.915 57.0513 243.842 57.511 243.842 58.0034C243.842 58.3728 243.929 58.6517 244.102 58.8402C244.279 59.0248 244.523 59.1172 244.835 59.1172C245.127 59.1172 245.398 59.0729 245.648 58.9844C245.898 58.8921 246.156 58.7786 246.422 58.644V60.0635C245.837 60.3675 245.19 60.5194 244.483 60.5194Z" fill="white"/>
<path d="M237.23 60.5194C236.665 60.5194 236.218 60.3155 235.891 59.9077C235.568 59.4961 235.407 58.921 235.407 58.1823C235.407 57.4206 235.545 56.6954 235.822 56.0068C236.099 55.3143 236.463 54.7796 236.913 54.4026C237.363 54.0217 237.857 53.8313 238.396 53.8313C238.769 53.8313 239.09 53.9121 239.36 54.0737C239.633 54.2352 239.844 54.4699 239.994 54.7777H240.041L240.369 53.9525H241.708L240.335 60.404H239.036L239.117 59.5673H239.071C238.556 60.202 237.942 60.5194 237.23 60.5194ZM237.911 59.1172C238.177 59.1172 238.432 58.9883 238.679 58.7305C238.925 58.4728 239.123 58.1246 239.273 57.6861C239.423 57.2436 239.498 56.7435 239.498 56.1857C239.498 55.9126 239.423 55.6875 239.273 55.5105C239.127 55.3297 238.933 55.2393 238.69 55.2393C238.429 55.2393 238.179 55.3778 237.94 55.6548C237.705 55.9318 237.517 56.2973 237.375 56.7512C237.236 57.2052 237.167 57.6553 237.167 58.1015C237.167 58.4401 237.23 58.694 237.357 58.8633C237.488 59.0325 237.673 59.1172 237.911 59.1172Z" fill="white"/>
<path d="M233.696 53.9525H235.035L233.627 60.5598C233.427 61.4754 233.075 62.1506 232.571 62.5853C232.071 63.0239 231.371 63.2431 230.471 63.2431C230.071 63.2431 229.707 63.2124 229.38 63.1508C229.057 63.0931 228.72 62.9854 228.37 62.8277V61.3158C228.986 61.6466 229.655 61.812 230.378 61.812C230.778 61.812 231.103 61.7197 231.354 61.535C231.607 61.3542 231.788 61.0696 231.896 60.681C232.004 60.2924 232.115 59.9116 232.231 59.5384H232.184C231.907 59.9 231.632 60.1539 231.359 60.3001C231.086 60.4463 230.79 60.5194 230.471 60.5194C229.936 60.5194 229.513 60.3136 229.201 59.902C228.889 59.4903 228.734 58.9171 228.734 58.1823C228.734 57.4283 228.868 56.7108 229.138 56.0299C229.411 55.349 229.772 54.8123 230.222 54.4199C230.673 54.0275 231.161 53.8313 231.688 53.8313C232.034 53.8313 232.331 53.8986 232.577 54.0333C232.827 54.1641 233.075 54.4122 233.321 54.7777H233.367L233.696 53.9525ZM231.313 59.1172C231.575 59.1172 231.817 58.9941 232.04 58.7478C232.263 58.5016 232.45 58.1458 232.6 57.6803C232.75 57.2109 232.825 56.7358 232.825 56.2549C232.825 55.9472 232.754 55.701 232.612 55.5163C232.469 55.3317 232.277 55.2393 232.034 55.2393C231.761 55.2393 231.504 55.3797 231.261 55.6606C231.023 55.9376 230.834 56.2973 230.696 56.7397C230.561 57.1821 230.494 57.636 230.494 58.1015C230.494 58.4401 230.567 58.694 230.713 58.8633C230.859 59.0325 231.059 59.1172 231.313 59.1172Z" fill="white"/>
<path d="M225.995 55.0835C225.656 55.0835 225.337 55.2374 225.037 55.5452C224.737 55.8529 224.541 56.228 224.448 56.6704H224.708C225.304 56.6704 225.768 56.5781 226.099 56.3934C226.433 56.2049 226.601 55.951 226.601 55.6317C226.601 55.2663 226.399 55.0835 225.995 55.0835ZM225.048 60.5194C224.241 60.5194 223.613 60.3021 223.167 59.8673C222.721 59.4326 222.498 58.819 222.498 58.0265C222.498 57.2302 222.656 56.505 222.971 55.851C223.29 55.1932 223.721 54.693 224.264 54.3507C224.806 54.0044 225.42 53.8313 226.104 53.8313C226.785 53.8313 227.316 53.989 227.697 54.3045C228.078 54.6161 228.268 55.045 228.268 55.5913C228.268 56.3107 227.947 56.8666 227.305 57.259C226.662 57.6476 225.745 57.8419 224.552 57.8419H224.258L224.246 57.963V58.0785C224.246 58.4285 224.344 58.7055 224.541 58.9094C224.741 59.1095 225.025 59.2095 225.395 59.2095C225.729 59.2095 226.033 59.1729 226.306 59.0999C226.58 59.0268 226.91 58.8979 227.299 58.7132V60.0231C226.637 60.354 225.887 60.5194 225.048 60.5194Z" fill="white"/>
<path d="M216.51 60.4041L218.293 51.9675H220.059L218.581 58.9269H221.536L221.224 60.4041H216.51Z" fill="white"/>
<defs>
<linearGradient id="paint0_linear_302_4738" x1="12.1745" y1="32.7059" x2="1.11393" y2="45.5171" gradientUnits="userSpaceOnUse">
<stop/>
<stop offset="1" stop-color="#1C60DD" stop-opacity="0"/>
</linearGradient>
<linearGradient id="paint1_linear_302_4738" x1="17.5328" y1="37.3299" x2="6.47277" y2="50.1437" gradientUnits="userSpaceOnUse">
<stop offset="0.19"/>
<stop offset="1" stop-color="#1C60DD" stop-opacity="0"/>
</linearGradient>
</defs>
</svg>
