<svg width="163" height="21" fill="none" xmlns="http://www.w3.org/2000/svg"><path d="M12.386 13.815l-.506.161V1.05h1.84V16h-1.84L2.174 3.258l.506-.161V16H.84V1.05h1.84l9.706 12.765zm12.278 2.415c-1.365 0-2.607-.314-3.726-.943-1.104-.644-1.986-1.541-2.645-2.691-.66-1.15-.99-2.507-.99-4.071 0-1.564.33-2.921.99-4.071.659-1.165 1.54-2.062 2.645-2.691 1.119-.629 2.361-.943 3.726-.943 1.364 0 2.599.314 3.703.943 1.119.629 2.008 1.526 2.668 2.691.659 1.15.989 2.507.989 4.071 0 1.564-.33 2.921-.99 4.071a7.137 7.137 0 01-2.667 2.691c-1.104.629-2.339.943-3.703.943zm0-1.725c1.042 0 1.978-.222 2.806-.667.828-.46 1.487-1.135 1.978-2.024.49-.89.736-1.986.736-3.289 0-1.303-.246-2.392-.736-3.266-.491-.89-1.15-1.564-1.978-2.024-.828-.46-1.764-.69-2.806-.69-1.028 0-1.963.23-2.806.69-.828.46-1.488 1.135-1.978 2.024-.491.874-.736 1.963-.736 3.266s.245 2.4.736 3.289c.49.89 1.15 1.564 1.978 2.024.843.445 1.778.667 2.806.667zM38.924 16l-5.38-14.95h1.978l4.623 12.972h-.552L44.03 1.05h1.978l4.439 12.972h-.552L54.519 1.05h1.932L51.115 16h-1.932L44.767 2.568h.506L40.857 16h-1.932z" fill="#64ACFF"/><path d="M60.78 10.71V8.985h4.692c.92 0 1.663-.284 2.23-.851.584-.583.875-1.334.875-2.254 0-.95-.291-1.702-.874-2.254-.568-.567-1.311-.851-2.231-.851h-4.324V16h-1.84V1.05h6.164c.69 0 1.334.107 1.932.322.598.215 1.12.529 1.564.943.46.414.813.92 1.058 1.518.26.598.39 1.28.39 2.047 0 .767-.13 1.449-.39 2.047a4.11 4.11 0 01-1.058 1.518 4.496 4.496 0 01-1.564.943 5.676 5.676 0 01-1.932.322H60.78zm16.675 5.52a4.46 4.46 0 01-2.507-.759c-.751-.521-1.357-1.227-1.817-2.116-.445-.905-.667-1.932-.667-3.082s.23-2.177.69-3.082c.46-.905 1.08-1.618 1.863-2.139a4.77 4.77 0 012.668-.782c1.073 0 1.886.276 2.438.828.567.537.95 1.257 1.15 2.162.215.905.322 1.909.322 3.013 0 .583-.061 1.219-.184 1.909a7.501 7.501 0 01-.644 1.955 3.997 3.997 0 01-1.242 1.518c-.537.383-1.227.575-2.07.575zm.46-1.748c.782 0 1.426-.192 1.932-.575.521-.383.905-.89 1.15-1.518.245-.644.368-1.35.368-2.116 0-.843-.13-1.58-.391-2.208-.245-.644-.629-1.142-1.15-1.495-.506-.368-1.142-.552-1.91-.552-1.15 0-2.038.406-2.667 1.219-.629.797-.943 1.81-.943 3.036 0 .813.153 1.541.46 2.185a3.96 3.96 0 001.288 1.495 3.386 3.386 0 001.863.529zm3.45-9.982h1.84V16h-1.68l-.045-.414a35.32 35.32 0 00-.07-.966 11.69 11.69 0 01-.045-.92V4.5zm4.403 0h1.978l4.117 11.04-1.61.46-4.485-11.5zm10.695 0l-6.417 16.1h-2.001l2.783-6.21 3.68-9.89h1.955zm2.552 0h1.84V16h-1.84V4.5zm5.796-.23c.613 0 1.165.092 1.656.276.491.184.905.452 1.242.805.337.353.598.782.782 1.288.184.49.276 1.05.276 1.679V16h-1.84V8.778c0-.89-.207-1.556-.621-2.001-.414-.445-1.035-.667-1.863-.667-.629 0-1.211.161-1.748.483a3.964 3.964 0 00-1.334 1.334c-.337.552-.544 1.196-.621 1.932l-.023-1.334c.077-.644.23-1.227.46-1.748a4.95 4.95 0 01.897-1.334 3.817 3.817 0 011.242-.874c.475-.2.974-.299 1.495-.299zm7.728 0c.613 0 1.165.092 1.656.276.491.184.905.452 1.242.805.337.353.598.782.782 1.288.184.49.276 1.05.276 1.679V16h-1.84V8.778c0-.89-.207-1.556-.621-2.001-.414-.445-1.035-.667-1.863-.667-.629 0-1.211.161-1.748.483a3.964 3.964 0 00-1.334 1.334c-.337.552-.544 1.196-.621 1.932l-.023-1.334c.077-.644.23-1.227.46-1.748a4.95 4.95 0 01.897-1.334 3.817 3.817 0 011.242-.874c.475-.2.974-.299 1.495-.299zm15.68 8.027h1.725a4.735 4.735 0 01-.828 2.024 4.501 4.501 0 01-1.656 1.403c-.675.337-1.457.506-2.346.506-1.074 0-2.04-.253-2.898-.759a5.765 5.765 0 01-2.047-2.116c-.491-.905-.736-1.932-.736-3.082s.237-2.177.713-3.082a5.592 5.592 0 012.001-2.139c.843-.521 1.794-.782 2.852-.782 1.119 0 2.062.253 2.829.759.782.49 1.357 1.219 1.725 2.185.383.95.537 2.124.46 3.519h-8.74c.076.751.283 1.41.621 1.978a3.706 3.706 0 001.334 1.334c.552.307 1.18.46 1.886.46.782 0 1.441-.2 1.978-.598.552-.414.928-.95 1.127-1.61zm-3.151-6.302c-.951 0-1.748.276-2.392.828-.644.552-1.074 1.303-1.288 2.254h6.739c-.062-1.012-.391-1.779-.989-2.3a3.003 3.003 0 00-2.07-.782zm7.917-1.495h1.84V16h-1.84V4.5zm5.796-.23c.614 0 1.166.092 1.656.276.491.184.905.452 1.242.805.338.353.598.782.782 1.288.184.49.276 1.05.276 1.679V16h-1.84V8.778c0-.89-.207-1.556-.621-2.001-.414-.445-1.035-.667-1.863-.667-.628 0-1.211.161-1.748.483a3.973 3.973 0 00-1.334 1.334c-.337.552-.544 1.196-.621 1.932l-.023-1.334c.077-.644.23-1.227.46-1.748.246-.521.545-.966.897-1.334a3.817 3.817 0 011.242-.874c.476-.2.974-.299 1.495-.299zm6.735.23h6.762v1.725h-6.762V4.5zm2.461-2.99h1.84V16h-1.84V1.51zm6.523 10.787h1.702c.046.66.291 1.196.736 1.61.46.414 1.119.621 1.978.621.521 0 .927-.069 1.219-.207.306-.138.529-.322.667-.552.138-.245.207-.514.207-.805 0-.353-.092-.629-.276-.828a1.856 1.856 0 00-.713-.529 8.32 8.32 0 00-1.012-.391 222.72 222.72 0 01-1.38-.529c-.46-.2-.897-.43-1.311-.69a3.474 3.474 0 01-.966-.989c-.246-.399-.368-.874-.368-1.426 0-.46.092-.89.276-1.288a2.97 2.97 0 01.782-1.058 3.86 3.86 0 011.219-.713 4.643 4.643 0 011.564-.253c.766 0 1.41.153 1.932.46.536.307.943.744 1.219 1.311.291.552.444 1.196.46 1.932h-1.587c-.108-.69-.33-1.188-.667-1.495-.322-.322-.79-.483-1.403-.483-.629 0-1.112.138-1.449.414-.338.276-.506.644-.506 1.104 0 .337.122.621.368.851.245.215.559.414.943.598.398.169.82.345 1.265.529.444.184.874.368 1.288.552.414.184.782.399 1.104.644.322.245.575.552.759.92.199.353.299.797.299 1.334 0 .644-.154 1.219-.46 1.725-.292.49-.729.874-1.311 1.15-.568.276-1.265.414-2.093.414-.752 0-1.396-.092-1.932-.276a4.319 4.319 0 01-1.311-.759 4.13 4.13 0 01-.828-1.012 3.648 3.648 0 01-.368-1.035 2.77 2.77 0 01-.046-.851z" fill="#FEFEFE"/></svg>