<svg viewBox="0 0 153 24" fill="none" xmlns="http://www.w3.org/2000/svg">
<path d="M38.0893 2.42844L35.6538 5.96368C34.9096 5.62375 34.0301 5.41979 33.1506 5.41979C32.6093 5.41979 32.1358 5.48778 31.6622 5.62375C31.5945 5.62375 31.5269 5.62375 31.4592 5.69174C30.715 5.89569 29.9708 6.16763 29.3619 6.64353C29.2943 6.71152 29.2266 6.71152 29.159 6.7795C28.6177 7.18741 28.0765 7.66331 27.6706 8.27518C26.1145 10.2468 24.8968 13.1021 22.7995 16.1615C22.5965 16.4334 22.3936 16.7733 22.1229 17.0453C20.4992 19.2888 18.3343 21.1244 15.8311 22.3481C15.6958 22.4161 15.5605 22.4841 15.4252 22.5521C15.0869 22.6881 14.681 22.824 14.3427 22.96C14.0721 23.028 13.8691 23.096 13.5985 23.164C12.922 23.2999 12.1778 23.4359 11.5012 23.4359C11.3659 23.4359 11.2306 23.4359 11.0276 23.4359C4.93876 23.4359 0 18.473 0 12.3543C0 6.23562 4.93876 1.27269 11.0276 1.27269C13.8691 1.27269 16.6429 2.36045 18.6726 4.40001L16.237 7.93525C13.8015 4.9439 9.47159 4.60397 6.63012 7.11943C3.72098 9.5669 3.38271 13.918 5.81826 16.8413C7.1037 18.405 9.06567 19.2888 11.0276 19.2888C11.1629 19.2888 11.2983 19.2888 11.5012 19.2888C12.4484 19.2208 13.3279 19.0169 14.1397 18.541C14.1397 18.541 14.1397 18.541 14.2074 18.541C16.5753 17.4532 18.4696 15.0057 21.717 9.36294C21.8523 9.15899 21.9876 8.88705 22.1229 8.61511C23.2054 6.64353 24.6938 4.9439 26.4528 3.5162C26.5205 3.44822 26.5881 3.44822 26.6558 3.38023C26.7234 3.31225 26.8587 3.24426 26.9264 3.17628C27.1294 3.04031 27.3323 2.90434 27.5353 2.76837C27.8059 2.63239 28.0765 2.49642 28.3471 2.36045L28.5501 2.22448C28.6854 2.1565 28.8207 2.08851 28.8884 2.08851C29.0237 2.02053 29.2266 1.95254 29.3619 1.88456C32.2711 0.864775 35.3832 1.06873 38.0893 2.42844Z" fill="#5022ED"/>
<path d="M44.1779 10.2461V12.3536C44.1779 12.7616 44.1779 13.1015 44.1102 13.5094C44.0426 13.8493 44.0426 14.1213 43.9749 14.4612C42.8248 20.5119 37.0742 24.455 31.053 23.2993C29.0233 22.8914 27.1967 21.9396 25.6406 20.5799L28.0762 17.0446C30.647 19.832 34.9769 20.036 37.7507 17.4525C38.6302 16.6367 39.3068 15.6169 39.6451 14.4612H32.812L35.7211 10.2461H44.1779Z" fill="#5022ED"/>
<path d="M68.7699 10.0852C68.161 9.47334 67.3493 9.13348 66.3345 9.13348C64.3725 9.13348 63.3576 10.5611 63.3576 12.1248C63.3576 13.8924 64.6431 15.1161 66.4697 15.1161C67.1463 15.1161 68.0258 14.9122 68.8376 14.1643V17.0877C68.2288 17.3597 67.3492 17.7676 66.1315 17.7676C64.4401 17.7676 63.0194 17.1557 62.0722 16.2039C61.2604 15.456 60.3809 14.0963 60.3809 12.1248C60.3809 10.2892 61.125 8.72556 62.2075 7.77377C63.4929 6.61802 64.9814 6.41406 65.9962 6.41406C67.0787 6.41406 68.0258 6.61795 68.8376 7.02586V10.0852H68.7699Z" fill="black"/>
<path d="M81.4221 7.98002C82.5046 8.93181 83.1812 10.4275 83.1812 12.1271C83.1812 13.8267 82.4369 15.3225 81.4221 16.2743C80.5426 17.0901 79.122 17.7699 77.16 17.7699C75.1304 17.7699 73.7773 17.0901 72.8977 16.2743C71.8153 15.3225 71.1387 13.8267 71.1387 12.1271C71.1387 10.3595 71.8829 8.93181 72.8977 7.98002C73.7773 7.1642 75.198 6.48438 77.16 6.48438C79.1896 6.48438 80.5426 7.1642 81.4221 7.98002ZM80.1367 12.1271C80.1367 10.4275 78.8514 9.13582 77.16 9.13582C75.4686 9.13582 74.1831 10.4955 74.1831 12.1271C74.1831 13.7588 75.401 15.1185 77.16 15.1185C78.919 15.1185 80.1367 13.7588 80.1367 12.1271Z" fill="black"/>
<path d="M87.6458 0.5C88.593 0.5 89.4047 1.31581 89.4047 2.2676C89.4047 3.2194 88.593 4.03529 87.6458 4.03529C86.6987 4.03529 85.8868 3.2194 85.8868 2.2676C85.8191 1.31581 86.631 0.5 87.6458 0.5ZM89.1342 6.82267V17.4963H86.1573V6.82267H89.1342Z" fill="black"/>
<path d="M92.5851 6.8243H95.562V8.18401C96.1033 7.36818 97.1181 6.48438 98.8095 6.48438C99.7566 6.48438 101.11 6.75633 101.921 7.77611C102.666 8.65992 102.733 9.74762 102.733 10.7674V17.43H99.7565V11.6512C99.7565 11.0394 99.7565 10.1556 99.2153 9.54372C98.7417 9.06782 98.1329 8.9998 97.7946 8.9998C96.9828 8.9998 96.3738 9.27176 95.9678 9.95161C95.4943 10.6315 95.4943 11.3793 95.4943 11.9912V17.43H92.5176V6.8243H92.5851Z" fill="black"/>
<path d="M114.301 6.82196H117.278V16.9518C117.278 18.5834 117.142 20.283 115.789 21.5747C115.045 22.3226 113.76 23.0705 111.595 23.0705C109.565 23.0705 108.348 22.4586 107.603 21.8467C106.791 21.1669 106.115 19.8752 105.912 18.6514H109.159C109.295 19.1273 109.565 19.6032 109.904 19.9431C110.512 20.487 111.324 20.487 111.73 20.487C112.61 20.487 113.151 20.2151 113.557 19.8071C114.233 19.1273 114.301 18.3115 114.301 17.4277V15.932C113.286 17.4957 111.865 17.6996 111.054 17.6996C109.633 17.6996 108.415 17.2237 107.4 16.2719C106.588 15.4561 105.709 14.0964 105.709 12.0568C105.709 10.3572 106.318 8.86152 107.333 7.84174C108.28 6.95793 109.565 6.41406 110.986 6.41406C112.948 6.41406 113.895 7.50183 114.301 8.1137V6.82196ZM109.768 9.8813C109.295 10.3572 108.821 11.037 108.821 12.1248C108.821 13.0766 109.159 13.7565 109.633 14.2324C110.242 14.9122 111.054 15.1841 111.798 15.1841C112.542 15.1841 113.286 14.9122 113.76 14.4363C114.369 13.8924 114.707 13.0086 114.707 12.1248C114.707 11.105 114.233 10.4251 113.827 10.0172C113.219 9.40537 112.542 9.13348 111.73 9.13348C110.783 9.13348 110.107 9.54137 109.768 9.8813Z" fill="black"/>
<path d="M128.847 6.8243H131.824V17.498H128.847V16.1383C127.765 17.7019 126.344 17.8379 125.6 17.8379C122.352 17.8379 120.188 15.2544 120.188 12.1271C120.188 8.99978 122.285 6.48438 125.465 6.48438C126.276 6.48438 127.832 6.62035 128.847 8.18401V6.8243ZM123.3 12.1271C123.3 13.8267 124.517 15.1185 126.209 15.1185C127.9 15.1185 129.118 13.7588 129.118 12.1271C129.118 10.4955 127.9 9.13582 126.209 9.13582C124.517 9.13582 123.3 10.4275 123.3 12.1271Z" fill="black"/>
<path d="M138.318 9.40696V17.4972H135.342V9.40696H134.191V6.82357H135.342V3.15234H138.318V6.82357H140.348V9.40696H138.318Z" fill="black"/>
<path d="M152.933 14.505C152.595 15.3209 151.444 17.8363 147.723 17.8363C146.032 17.8363 144.746 17.3605 143.664 16.3407C142.514 15.2529 141.973 13.8252 141.973 12.1936C141.973 10.0861 142.852 8.79426 143.596 8.04643C144.814 6.82269 146.303 6.55078 147.588 6.55078C149.753 6.55078 150.971 7.43457 151.715 8.31838C152.865 9.67809 153 11.3097 153 12.4655V12.7374H145.085C145.085 13.3493 145.288 14.0971 145.626 14.505C145.964 14.9809 146.573 15.5248 147.723 15.5248C148.873 15.5248 149.685 14.9809 150.227 14.0971L152.933 14.505ZM150.159 10.6979C149.888 9.27018 148.738 8.59034 147.656 8.59034C146.573 8.59034 145.423 9.27018 145.153 10.6979H150.159Z" fill="black"/>
</svg>
