<?xml version="1.0" encoding="UTF-8"?>
<svg id="Layer_1" data-name="Layer 1" xmlns="http://www.w3.org/2000/svg" width="700" height="594.67" viewBox="0 0 700 594.67">
  <path d="m271.36,187.04c0-43.37,35.27-78.64,78.64-78.64s78.64,35.27,78.64,78.64-35.27,78.64-78.64,78.64-78.64-35.27-78.64-78.64Zm106.69-36.49v11.97l-33.28,45.15h33.28v15.87h-21.46v13.15h-13.19v-13.15h-21.46v-11.97l33.25-45.15h-33.25v-15.87h21.46v-13.19h13.19v13.19h21.46Z" style="fill: #f4b728; fill-rule: evenodd;"/>
  <path d="m87.5,467.78l60.4-75.88h-58.07v-16.26h78.21v16.26l-60.4,75.88h61.95v16.26h-82.08v-16.26Z"/>
  <path d="m344.26,375.64h18.58l43.36,108.4h-17.81l-10.84-27.88h-48.01l-10.84,27.88h-17.81l43.36-108.4Zm27.1,65.04l-17.81-44.91-17.81,44.91h35.62Z"/>
  <path d="m525,375.64h17.03v45.68h53.43v-45.68h17.04v108.4h-17.04v-47.23h-53.43v47.23h-17.03v-108.4Z"/>
  <path d="m440.27,404.28c0-7.9,6.97-14.71,20.13-14.71,7.28,0,13.01,2.63,16.72,5.11,2.17,1.39,4.69,3.67,6.31,5.59l10.33-12.98c-2.21-2.33-4.88-4.42-7.96-6.24-5.73-3.56-14.25-6.97-25.4-6.97-23.07,0-37.17,13.94-37.17,30.2,0,40.26,57.3,25.55,57.3,49.56,0,8.67-7.59,16.26-21.68,16.26-9.29,0-16.11-3.1-20.6-6.19-2.53-1.79-5.18-4.21-6.98-6.95l-10.45,13.12c2.48,2.79,5.35,5.32,8.76,7.45,6.35,4.18,16.11,8.05,29.27,8.05,24,0,38.72-14.71,38.72-31.75,0-40.26-57.3-25.55-57.3-49.56Z"/>
  <path d="m277.61,452.43c-2.36,3.56-5.74,6.68-9.14,9.16-5.73,4.34-14.25,8.52-25.4,8.52-22.46,0-40.26-17.81-40.26-40.26s17.81-40.26,40.26-40.26c11.15,0,19.51,4.03,25.09,8.21,3.25,2.32,6.77,5.83,8.65,8.72l9.75-12.25c-2.97-3.56-6.45-6.74-10.35-9.63-7.43-5.42-18.27-10.53-33.14-10.53-32.52,0-57.3,24.78-57.3,55.75s24.78,55.75,57.3,55.75c14.87,0,25.86-5.42,33.45-10.84,4.21-3.05,7.72-6.38,10.82-10.1l-9.73-12.22Z"/>
</svg>