<?xml version="1.0" encoding="UTF-8"?>
<svg id="Camada_1" data-name="Camada 1" xmlns="http://www.w3.org/2000/svg" viewBox="0 0 1740 817">
  <defs>
    <style>
      .cls-1 {
        fill: #fff;
      }
    </style>
  </defs>
  <path class="cls-1" d="M437,817h-1l-275.98-131.5,206.86-194.79L0,1V0l564.44,323.06,36.1,135.99-262.4,145.58,98.86,212.37ZM68.01,60.01l312.63,418.93,160.32-147.51L68.01,60.01ZM552.99,346.01l-313.99,290.98,340.91-187.13-26.91-103.85ZM398.99,777.99l-77.56-164.99-125.43,69.5,202.99,95.49Z"/>
  <polygon class="cls-1" points="1740 345 1740 624 1675 619 1675 352 1740 345"/>
  <polygon class="cls-1" points="1480 345 1480 461 1578 460 1578 345 1643.06 353.58 1642.86 617.36 1641.36 618.86 1580.4 623.95 1578 622.5 1578 501 1480 500 1480 619 1415 624 1415 352 1480 345"/>
  <path class="cls-1" d="M1333.83,579.83c11.76-29.03,7.47-47.66-23.05-58.11-30.21-10.35-61.49-9.8-90.46-26.54-42.51-24.58-43.92-74.1-12.37-108.71l87.63-41.37c35.46.01,76.99,11.7,97.98,41.91l-52.08,43.81c-9.68-12.28-20.78-23.37-34.18-31.61-4.42-2.72-14.64-8.6-19.28-9.72-12.15-2.95-32.34,1.09-45.37-.31-11.54,18.76-9.8,39.18,11.37,49.31,37.52,17.95,99.43,9.58,125.2,48.8,18.94,28.83,10.45,70.49-10.87,95.58l-88.83,41.16c-36.77-.82-76.63-10.53-99.34-41.53l52.32-44.47c10.96,14.57,36.2,40.24,54.96,42.02,14.6,1.39,31.53-.97,46.37-.21Z"/>
  <path class="cls-1" d="M1081.93,345.08l94.07,273.92-61.85,4.86-26.25-69.74-91.46-5.77-27.9,69.7-43.53,5.96,102.18-270.81,54.74-8.11ZM1070,510l-31.5-80.01-26.5,80.01h58Z"/>
  <polygon class="cls-1" points="929 351 799 557 923 557 902 617 717 617 717 600.5 846 406 728 406 744 351 929 351"/>
</svg>