<?xml version="1.0" encoding="UTF-8"?>
<svg id="Camada_1" data-name="Camada 1" xmlns="http://www.w3.org/2000/svg" viewBox="0 0 1959.88 1959.88">
  <defs>
    <style>
      .cls-1 {
        fill: #fff;
      }
    </style>
  </defs>
  <path class="cls-1" d="M1195.24,1364.47h-1.57l-434.57-207.07,325.74-306.72L507.12,79.56v-1.57l888.79,508.71,56.85,214.14-413.19,229.24,155.66,334.4ZM614.2,172.47l492.28,659.68,252.45-232.27L614.2,172.47ZM1377.89,622.82l-494.43,458.2,536.81-294.67-42.38-163.53ZM1135.4,1303.05l-122.13-259.8-197.51,109.43,319.64,150.36Z"/>
  <g>
    <polygon class="cls-1" points="1574.05 1557.82 1574.05 1881.88 1498.55 1876.07 1498.55 1565.95 1574.05 1557.82"/>
    <polygon class="cls-1" points="1272.06 1557.82 1272.06 1692.56 1385.89 1691.39 1385.89 1557.82 1461.45 1567.79 1461.22 1874.17 1459.48 1875.91 1388.67 1881.82 1385.89 1880.14 1385.89 1739.02 1272.06 1737.85 1272.06 1876.07 1196.56 1881.88 1196.56 1565.95 1272.06 1557.82"/>
    <path class="cls-1" d="M1102.29,1830.57c13.66-33.72,8.68-55.36-26.77-67.5-35.09-12.02-71.42-11.38-105.06-30.83-49.38-28.56-51.02-86.07-14.37-126.27l101.79-48.05c41.18.02,89.43,13.59,113.8,48.68l-60.49,50.88c-11.24-14.27-24.14-27.14-39.7-36.72-5.14-3.16-17-9.99-22.39-11.29-14.12-3.42-37.56,1.26-52.69-.36-13.41,21.79-11.38,45.51,13.2,57.27,43.57,20.84,115.48,11.12,145.42,56.69,22,33.49,12.14,81.87-12.63,111.02l-103.17,47.81c-42.71-.95-89-12.23-115.38-48.24l60.76-51.66c12.73,16.92,42.05,46.74,63.83,48.81,16.95,1.61,36.63-1.13,53.86-.25Z"/>
    <path class="cls-1" d="M809.7,1557.91l109.26,318.16-71.84,5.64-30.49-81.01-106.23-6.71-32.41,80.96-50.56,6.92,118.68-314.55,63.58-9.42ZM795.84,1749.47l-36.59-92.93-30.78,92.93h67.37Z"/>
    <polygon class="cls-1" points="632.07 1564.79 481.08 1804.06 625.1 1804.06 600.71 1873.75 385.83 1873.75 385.83 1854.58 535.67 1628.67 398.61 1628.67 417.19 1564.79 632.07 1564.79"/>
  </g>
</svg>