<?xml version="1.0" encoding="UTF-8"?>
<svg id="Layer_1" data-name="Layer 1" xmlns="http://www.w3.org/2000/svg" viewBox="0 0 1080 1080">
  <defs>
    <style>
      .cls-1 {
        fill: #fff;
      }
    </style>
  </defs>
  <path class="cls-1" d="M942.87,624.38c-39.53,183.42-203.67,316.21-391.58,316.21-210.88,0-384.23-163.79-399.49-370.85,10.32-2.78,18.37-11.11,20.76-21.59h75.97c2.6,11.39,11.89,20.24,23.51,22.18,2.94,27.01,9.81,53.34,20.57,78.59,14.23,33.4,34.56,63.45,60.43,89.32,25.87,25.87,55.92,46.2,89.32,60.43,34.62,14.75,71.27,22.23,108.93,22.23,60.12,0,117.63-18.92,166.31-54.7,48.51-35.66,83.64-84.7,101.63-141.83h-13.66c-35.99,108.3-139.86,183.53-254.27,183.53-137.73,0-251.49-104.47-266.27-238.32,10.06-2.93,17.86-11.14,20.21-21.43h102.71c1.98,35.06,16.72,67.89,42,93.18,27.24,27.24,63.23,42.24,101.33,42.24,45.96,0,89.19-22.09,116.15-59.2h-16.5c-24.67,29.12-61.11,46.2-99.66,46.2-69.26,0-126.09-54.21-130.32-122.42h543.88l.03-8.16c0-55.44-11.01-109.4-32.72-160.37-20.95-49.17-50.89-93.42-88.98-131.52-38.09-38.09-82.34-68.03-131.52-88.98-50.97-21.71-104.93-32.72-160.37-32.72s-109.4,11.01-160.37,32.72c-49.17,20.95-93.42,50.89-131.52,88.98s-68.03,82.34-88.98,131.52c-18.19,42.69-28.86,87.48-31.85,133.48-13.37,2.62-23.46,14.4-23.46,28.54s10.21,26.05,23.69,28.58c3.28,44.82,13.87,88.47,31.62,130.13,20.95,49.17,50.89,93.42,88.98,131.52,38.09,38.09,82.34,68.03,131.52,88.98,50.97,21.71,104.93,32.72,160.37,32.72,47.95,0,95.1-8.29,140.16-24.63,43.83-15.9,84.46-38.95,120.78-68.52s67.12-64.69,91.56-104.39c25.02-40.64,42.64-84.94,52.38-131.67h-13.31ZM551.29,139.41c219.27,0,397.96,177.08,400.56,395.75H420.81c2.56-69.77,60.1-125.74,130.48-125.74,36.09,0,69.92,14.61,94.49,40.45h17.26c-27.39-33.97-68.06-53.45-111.75-53.45-38.11,0-74.09,15-101.33,42.24s-40.94,60.19-42.15,96.49h-102.57c-2.38-10.41-10.33-18.69-20.56-21.53,13.29-135.4,127.78-241.54,266.61-241.54,113.46,0,214.25,71.25,252.29,177.78h13.77c-18.89-55.77-54.27-103.48-102.33-137.97-48.13-34.55-104.75-52.81-163.73-52.81-37.66,0-74.31,7.48-108.93,22.23-33.4,14.23-63.45,34.56-89.32,60.43-25.87,25.87-46.2,55.92-60.43,89.32-11.2,26.3-18.2,53.77-20.92,81.97-11.46,2.07-20.58,10.84-23.16,22.12h-75.97c-2.41-10.56-10.55-18.93-20.99-21.65,13.69-208.58,187.73-374.1,399.72-374.1Z"/>
</svg>