<?xml version="1.0" encoding="UTF-8"?>
<svg id="Camada_1" data-name="Camada 1" xmlns="http://www.w3.org/2000/svg" viewBox="0 0 1920 1080">
  <defs>
    <style>
      .cls-1 {
        fill: #fff;
      }
    </style>
  </defs>
  <path class="cls-1" d="M1868.16,583.68c-.6,1.31-1.92,4.06-3.25,4.65-1.49.67-2.11.35-3.12.65-.4.12-.32.84-.68.92-4.48,1.12-10.29-3.99-10.74-8.35-.29-2.76.38-3.81,1.54-6.09,1.06-2.09,1.69-2.28,3.6-2.99.16-.06.19-.7.51-.77.88-.21,5.61-.19,6.65-.06.86.11.58.82,1.04.98s1.27-.13,1.66.05c1.04.48,2.26,3.26,2.78,4.29v6.72Z"/>
  <path class="cls-1" d="M1401.47,492.63c3.92,1.13,12.16,5.59,16.23,8.67,14.19,10.75,19.98,27.73,18.47,45.19-1.62,18.67-17.66,36.22-35.89,41.4-3.47.99-16.73,2.79-19.96,2.02-4.88-1.17-11.58-2.42-16.29-4.33-7.54-3.07-18.58-12.47-22.76-19.82-.54-.96.58-2.06-1.54-1.79.53-1.82-.71-2.22-.85-2.53-18.34-40.88,19.27-81.25,62.58-68.8ZM1392.82,507.52c-27.61-5.48-50.18,24.21-36.03,48.01,21.82,39.38,78.62,5.54,56.66-32.66-4.35-7.58-13.44-12.48-20.63-15.35Z"/>
  <path class="cls-1" d="M1801.77,493.61c5.82,2.12,12.48,6.4,17.22,10.85,6.54,6.13,8.84,10.14,11.99,18.24,10.69,27.48-5.35,57.28-32.89,65.07-4.56,1.29-14.9,2.79-19.48,2.19-1.57-.21-5.64-1.41-7.76-1.84-15.52-3.14-28.05-13.98-34.35-28.05-18.23-40.71,22.36-82.1,65.28-66.46ZM1796.93,509.96c-29.47-13.22-57.75,19.42-41.87,47.14,2.37,4.14,6.32,7.52,10.02,10.41,25.01,17.15,58.61-7.87,49.58-37.13-2.42-7.84-10.22-17.05-17.73-20.42Z"/>
  <path class="cls-1" d="M1007.76,492.48c.09,0,.61.82,1.45.95,1.34.21,3.02-.26,4.21.03.16.04,2.4.88,2.85,1.06,5.71,2.32,13.05,8.34,15.87,13.44,3.27,5.91,5.16,14.51,4.21,21.75-.11.88-.9.64-.98,1.02-.48,2.09-.17,4.03-.99,6.03-2.42,5.87-11.56,14.2-17.6,16.19-1.46.48-2.38-1.04-2.09,1.71,2.83,3.71,5.26,7.71,7.91,11.53,3.77,5.43,8.04,11.25,11.86,17.09.76,1.16,2.41,2.3,3.07,3.77.47.26-.43.95-.49.95h-20.64c-.18,0-2.29-2.28-2.49-2.56-5.86-8.22-10.56-17.09-16.63-25.39-.76-1.04-.66-2.77-2.48-2.77h-19.68l-.72.72v30h-16.56l-.72-.72v-94.8h50.64ZM1001.52,508.8c-8.59-.66-17.97.49-26.64,0,.15.47-.48,1.04-.48,1.2v30.72l.72.72h27.36c1.75,0,7.58-1.99,9.17-2.85.24-.13,2.83-1.94,2.96-2.06.32-.32,3.32-5.21,3.43-5.54,1.55-4.53.92-12.23-2.02-15.8-.21-.26-.97-.07-1.32-.46-.39-.44-1.46-2.66-2.01-2.9-3.05-1.31-7.69-2.76-11.16-3.02Z"/>
  <path class="cls-1" d="M753.6,492.48v15.84c-.47-.15-1.04.48-1.2.48h-54s.08.53-.17.79-.79.13-.79.17v20.64h38.88v16.8h-37.2c-.26,0-1.07.74-1.68.48v23.04s.53-.08.79.17.13.79.17.79h55.2v15.84h-73.44v-95.04h73.44Z"/>
  <path class="cls-1" d="M570.24,492.48v16.32h-55.2v21.6h38.88v16.8h-37.68c-.16,0-.73.63-1.2.48v23.52c.47-.15,1.04.48,1.2.48h54v16.32h-72.48v-95.52h72.48Z"/>
  <path class="cls-1" d="M1492.8,491.04l60.04,59,1.4-.68v-56.88h16.8v96.48c-1.51-.2-1.75-1.87-2.27-2.37-17.64-16.92-35.76-35.13-53.28-52.32l-4.45-4.11-.96.49v57.36h-16.56l-.72-.72v-96.24Z"/>
  <path class="cls-1" d="M1302.57,493.61c3.94,1.45,10.81,5.51,14.44,8.31,2.53,1.95,4.77,4.89,7.17,7,1.05,2.57-1.94,2.4-2.58,2.9-2.02,1.6-4.31,4.27-6.5,5.78-1.41.97-3.16,1.58-4.45,2.77-1.6.25-2.08-1.97-2.82-2.76-3.82-4.04-11.34-9.31-16.89-10.22-35.64-5.85-53.5,38.5-26,59.85,2.46.4,6.82,3.97,8.85,4.42,14.36,3.17,24.16.67,34.72-8.95.66-.6.68-2.45,2.21-2.42,1.17-.08,4.89,3.6,6.13,4.46,2.36,1.65,4.81,3.31,7.39,4.62.75,1.29-1.86,3.86-2.8,4.85-6.06,6.38-18.21,13.35-27.13,14.71-3.81.58-11.1,1.52-14.88,1.02-1.59-.21-4.11-.71-6.18-1.02-15.23-2.31-31.46-16.44-36.91-31.01-15.48-41.37,25.05-79.52,66.26-64.31Z"/>
  <path class="cls-1" d="M1700.49,493.61c3.27,1.19,11.35,5.66,13.92,7.67.66.51,7.47,7.15,7.69,7.65.92,2.02-3.79,4.06-5.4,5.34-1.48,1.17-7.03,6.17-8.61,6.11-2.02-.08-1.41-1.52-2.38-2.74-2-2.53-7.03-6.25-9.92-7.58-15.97-7.35-33.78-1.11-42.21,14.23-7.68,13.96-5.46,27.54,5.58,38.95,8.18,8.46,18,10.93,29.76,9.45.34-.04,5.26-1.73,6.08-2.07,6.03-2.45,8.53-6.22,13.13-10.18.2-.17.24-.49.2-.75,3.34,2.39,6.51,5.01,9.78,7.48,1.06.8,4.35,1.86,4.15,3.78-4.88,5.19-9.58,9.4-15.97,12.76-7.03,3.7-20.42,7.37-28.95,6.26-1.23-.16-4.26-.79-6.1-1.11-15.05-2.6-31.19-15.55-36.78-29.55-16.6-41.52,23.91-80.97,66.04-65.69Z"/>
  <path class="cls-1" d="M1158.11,492.63c3.71,1.1,12.39,5.62,16.23,8.69.73.58,7.51,7.12,7.76,7.59,1.05,1.96-4.01,4.26-5.41,5.37-2.87,2.26-4.37,3.38-7.29,5.2-.46.29-.5,2.13-1.93.72-.34-.33-.32-1.13-.77-1.63-4-4.44-8.87-8.18-14.58-10.14-14.69-5.04-32.3,2.77-39.32,16.86-15.24,30.61,20.48,61.19,48.76,41.72,2.26-2.4,5.41-4.09,6.76-7.33,1.64,1.39,3.53,2.46,5.24,3.71,2.51,1.83,5.07,3.66,7.42,5.72.56.49,1.8-.43,1.17,1.79-3.71,3.76-7.08,7.61-11.55,10.54-26.67,17.46-67.56,6.12-77.41-26.08-12.29-40.17,25.31-74.5,64.91-62.73Z"/>
  <path class="cls-1" d="M834.09,493.61c6.62,2.33,14.93,7.91,19.8,13.17.73.79,1.57,2.36,2.42,3.23-.58,1.25-2.85,1.55-3.2,1.81-3.19,2.41-6.03,5.87-9.63,7.87-.57.32-1.1.68-1.8.68-.4.02-3.32-3.53-4.04-4.27-.46-.46-.62-1.38-.96-1.68-17.1-15.34-45.04-5.57-52.21,15.4-1.39,4.07-1.76,12.4-1.13,17.17.12.88.91.64.99,1.02.48,2.25.37,2.97,1.35,5.28,2.48,5.82,9.08,13.11,14.42,15.93,6.55,3.47,15.16,4.43,22.91,3.45.27-.03,3.96-1.74,4.42-1.92,5.17-1.97,9.29-4.56,13.21-8.7.56-.6.07-1.91,2.03-1.68,2.38,1.89,5.08,3.32,7.53,5.08.85.62,1.88,1.93,2.96,2.68.57.4,2.95.61,3.16,2.3-.11.49-6.08,6.63-6.88,7.29-9.02,7.43-26.06,13.8-38.01,12.23-.88-.11-.64-.89-1.02-.98-2.67-.63-6.22-.15-9.4-1.08-10.42-3.04-23.61-12.05-29.45-22.15-24.09-41.59,16.69-88.3,62.56-72.14Z"/>
  <path class="cls-1" d="M939.84,492.48v16.32h-27.36v79.2h-16.56l-.72-.72v-77.52s-.53.08-.79-.17-.13-.79-.17-.79h-26.64l-.72-.72v-15.6h72.96Z"/>
  <path class="cls-1" d="M606.24,492.48v78.72c.47-.15,1.04.48,1.2.48h54v16.32h-72.48v-95.52h17.28Z"/>
  <polygon class="cls-1" points="1073.76 492.48 1073.76 587.28 1073.04 588 1056.72 588 1056 587.28 1056 492.48 1073.76 492.48"/>
  <rect class="cls-1" x="1453.92" y="492.48" width="17.28" height="95.52"/>
  <path class="cls-1" d="M404.64,576.27c-16.83,78.07-86.69,134.6-166.68,134.6-89.76,0-163.55-69.72-170.05-157.86,4.39-1.18,7.82-4.73,8.84-9.19h32.34c1.11,4.85,5.06,8.62,10.01,9.44,1.25,11.5,4.18,22.7,8.76,33.45,6.06,14.22,14.71,27.01,25.72,38.02,11.01,11.01,23.8,19.67,38.02,25.72,14.74,6.28,30.34,9.46,46.37,9.46,25.59,0,50.07-8.05,70.79-23.28,20.65-15.18,35.6-36.05,43.26-60.37h-5.81c-15.32,46.1-59.53,78.12-108.23,78.12-58.63,0-107.05-44.47-113.34-101.44,4.28-1.25,7.6-4.74,8.6-9.12h43.72c.84,14.92,7.12,28.9,17.88,39.66,11.6,11.6,26.91,17.98,43.13,17.98,19.56,0,37.96-9.4,49.44-25.2h-7.02c-10.5,12.4-26.01,19.67-42.42,19.67-29.48,0-53.67-23.08-55.47-52.11h231.51v-3.47c.01-23.6-4.67-46.57-13.91-68.26-8.92-20.93-21.66-39.77-37.88-55.98-16.21-16.21-35.05-28.96-55.98-37.88-21.7-9.24-44.66-13.93-68.26-13.93s-46.57,4.69-68.26,13.93c-20.93,8.92-39.77,21.66-55.98,37.88-16.22,16.21-28.96,35.05-37.88,55.98-7.74,18.17-12.28,37.24-13.56,56.82-5.69,1.12-9.99,6.13-9.99,12.15s4.35,11.09,10.08,12.17c1.4,19.08,5.9,37.66,13.46,55.39,8.92,20.93,21.66,39.77,37.88,55.98,16.21,16.21,35.05,28.96,55.98,37.88,21.7,9.24,44.66,13.93,68.26,13.93,20.41,0,40.48-3.53,59.66-10.48,18.66-6.77,35.95-16.58,51.41-29.17,15.46-12.59,28.57-27.54,38.97-44.43,10.65-17.3,18.15-36.16,22.3-56.05h-5.67.01ZM237.96,369.83c93.33,0,169.4,75.38,170.5,168.46h-226.04c1.09-29.7,25.58-53.52,55.54-53.52,15.36,0,29.76,6.22,40.22,17.22h7.35c-11.66-14.46-28.97-22.75-47.57-22.75-16.22,0-31.54,6.38-43.13,17.98-11.6,11.6-17.43,25.62-17.94,41.07h-43.66c-1.01-4.43-4.4-7.96-8.75-9.16,5.66-57.63,54.39-102.81,113.49-102.81,48.3,0,91.2,30.33,107.39,75.67h5.86c-8.04-23.74-23.1-44.05-43.56-58.73-20.49-14.71-44.59-22.48-69.69-22.48-16.03,0-31.63,3.18-46.37,9.46-14.22,6.06-27.01,14.71-38.02,25.72-11.01,11.01-19.67,23.8-25.72,38.02-4.77,11.19-7.75,22.89-8.9,34.89-4.88.88-8.76,4.61-9.86,9.42h-32.34c-1.03-4.49-4.49-8.06-8.93-9.22,5.83-88.78,79.91-159.24,170.15-159.24h0Z"/>
</svg>