<?xml version="1.0" encoding="utf-8"?>
<svg id="Layer_1" data-name="Layer 1" xmlns="http://www.w3.org/2000/svg" viewBox="0 0 792 612"><defs><style>.cls-1{fill:none;}.cls-2{fill:#010101;}</style></defs><path class="cls-1" d="M514.45,426.9c-7,0-11,6.07-11,13.09,0,8.45,4.38,13.2,11,13.2,7.39,0,10.5-6.92,10.5-13.2C525,433,521.47,426.9,514.45,426.9Z"/><path class="cls-1" d="M485.83,426.9c-7.34,0-11.19,6.38-11.19,13.14,0,6.92,3.85,13.15,11.19,13.15S497,447,497,440C497,433.28,493.06,426.9,485.83,426.9Z"/><path class="cls-1" d="M322,439.69c-5.6,1-12.55,1-12.55,6.22,0,3.3,2.87,5.33,6,5.33,5.08,0,9.42-3.19,9.42-8.47v-4.28h-.11C324.38,439.27,322.92,439.53,322,439.69Z"/><path class="cls-1" d="M430.82,439.83c-4.28.26-8.29,1.27-8.29,7.07,0,3.12,2,6.29,7.92,6.29,7.07,0,11-5.18,11-10.51v-5h-.11C440,439.67,435.09,439.57,430.82,439.83Z"/><path d="M402.52,453.45c-10.19,0-16-8.82-16-18.37,0-7.81,4.27-19,16.68-19,8.18,0,13.57,5.7,14,11.14h1.06c-.16-4.64-5.07-12.19-15.05-12.19-12.83,0-17.74,10.92-17.74,20.06,0,11.24,7,19.43,17.06,19.43,9.5,0,15.31-6.55,16.57-15.68h-1C416.93,447.17,411.54,453.45,402.52,453.45Z"/><path d="M442.48,450.86V433.6c-.15-5.91-4.17-7.76-9-7.76-6.71,0-10.09,3.91-10.35,9h1.06c.37-5.07,3.59-8,9.29-8,7.23,0,7.92,4.27,7.92,7.49,0,4.07-3.17,4-10.61,4.38-4.54.27-9.35,1.43-9.35,8.13,0,4.86,3.64,7.34,9.08,7.34,5.65,0,9.66-3.32,10.77-6.81h.11V451c0,2.06,1.37,2.69,2.9,2.69.53,0,1.06,0,1.58-.05v-1.06C444.44,452.71,442.48,452.92,442.48,450.86Zm-1.05-8.18c0,5.33-3.91,10.51-11,10.51-5.92,0-7.92-3.17-7.92-6.29,0-5.8,4-6.81,8.29-7.07s9.13-.16,10.5-2.16h.11Z"/><path d="M459.54,425.84c-5.34,0-8.82,3.17-9.77,7.34h-.11v-6.71h-1.05v27.14h1.05V438.25c0-6.07,3.38-11.35,9.88-11.35,4.64,0,8.6,2.58,8.6,8.87v17.84h1.06v-18C469.2,429.27,465.19,425.84,459.54,425.84Z"/><path d="M485.83,425.84c-8,0-12.25,6.81-12.25,14.2s4.28,14.2,12.2,14.2S498,447.49,498,440,493.7,425.84,485.83,425.84Zm0,27.35c-7.34,0-11.19-6.23-11.19-13.15,0-6.76,3.85-13.14,11.19-13.14S497,433.28,497,440C497,447,493.06,453.19,485.83,453.19Z"/><path d="M514.45,425.84a11.06,11.06,0,0,0-10.88,8.24h-.1v-7.61h-1.06V463h1.06V446h.1c1.27,4.91,5.12,8.23,10.88,8.23,7.44,0,11.56-6.65,11.56-14.25C526,431.81,521.63,425.84,514.45,425.84Zm0,27.35c-6.6,0-11-4.75-11-13.2,0-7,4-13.09,11-13.09S525,433,525,440C525,446.27,521.84,453.19,514.45,453.19Z"/><path d="M548.87,426.47l-9.71,25.71-10.77-25.71h-1.16l11.35,26.88-2,5.06c-1.26,3.28-2.74,3.49-6.33,3.49V463c3.22,0,5.75-.15,7.18-3.8L550,426.47Z"/><polygon class="cls-2" points="278.57 419.03 278.57 415.89 251.69 415.89 251.69 418.93 274.6 418.93 250.02 450.09 250.02 453.23 279.1 453.23 279.1 450.2 253.99 450.2 278.57 419.03"/><path class="cls-2" d="M292.46,451.24c-6.27,0-9.46-5.8-9.46-11.5s3.19-11.5,9.46-11.5c4.35,0,6.75,2.45,7.64,6.48h3.29c-.78-6.22-5.12-9.26-10.93-9.26-8.21,0-12.75,6.54-12.75,14.28S284.25,454,292.46,454c6.07,0,10.25-3.93,11.14-10.46h-3.29A8.12,8.12,0,0,1,292.46,451.24Z"/><path class="cls-2" d="M328.2,448.47V434.14c0-7.26-5.18-8.68-9.94-8.68-6.22,0-10.56,2.72-10.93,9.05h3.3c.16-4.39,3.08-6.27,7.22-6.27,3.92,0,7.06,1.09,7.06,5.54,0,2.93-1.52,3.4-4.24,3.66-7.11.84-14.49,1.15-14.49,8.68,0,5.44,4,7.9,9.05,7.9,5.23,0,7.48-2,9.83-5.49h.11c0,2.77.52,4.7,3.87,4.7a9.09,9.09,0,0,0,2.14-.21v-2.77a2.42,2.42,0,0,1-1,.21A1.74,1.74,0,0,1,328.2,448.47Zm-3.29-5.7c0,5.28-4.34,8.47-9.42,8.47-3.14,0-6-2-6-5.33,0-5.23,6.95-5.23,12.55-6.22.89-.16,2.35-.42,2.77-1.2h.11Z"/><path class="cls-2" d="M346.74,438.43l-4.39-1c-2.3-.58-5.6-1.67-5.6-4.55,0-3.5,3.45-4.65,6.38-4.65,3.77,0,6.91,1.83,7.06,5.9h3.3c-.26-5.85-4.45-8.68-9.89-8.68-4.75,0-10.14,2.1-10.14,7.59,0,4.55,3.24,6.11,7.53,7.21l4.23.94c3,.74,5.91,1.78,5.91,4.92,0,3.77-4.23,5.12-7.37,5.12-4.39,0-7.69-2.3-7.95-6.74h-3.29c.57,6.64,4.76,9.52,11.08,9.52,5,0,10.83-2.25,10.83-8.11C354.43,441.2,350.51,439,346.74,438.43Z"/><path class="cls-2" d="M370.46,425.46a9.21,9.21,0,0,0-8.63,5.44h-.1v-15h-3.3v37.34h3.3V437.49c.15-5.28,3.19-9.25,8.47-9.25s6.85,3.55,6.85,8.15v16.84h3.29V435.87C380.34,429.44,378,425.46,370.46,425.46Z"/><path d="M441.21,305.75a69.4,69.4,0,0,1-39,18.05,54.3,54.3,0,0,1-13,20.92,41.14,41.14,0,0,0,76.45-28.85A46.79,46.79,0,0,1,441.21,305.75Z"/><path d="M480.38,206.63a33.3,33.3,0,0,1-4,15.93,46.78,46.78,0,0,1,25.58,11.65,34.7,34.7,0,0,0-38.39-56.63A33.53,33.53,0,0,1,480.38,206.63Z"/><path d="M438.9,201.56c.74.63,1.47,1.27,2.19,1.93s1.51,1.43,2.24,2.16c1.06,1.07,2.07,2.17,3.06,3.3q.84,1,1.65,2c.54.67,1.07,1.34,1.58,2a69.22,69.22,0,0,1,7,11.42,46.34,46.34,0,0,1,11.28-2.05c.84,0,1.67-.08,2.52-.08h.34a29,29,0,0,0,1.59-2.76,28.49,28.49,0,0,0-14-38.93,28.78,28.78,0,0,0-2.82-1.07,29.49,29.49,0,0,0-3-.78,29,29,0,0,0-5.62-.56,28.25,28.25,0,0,0-10.59,2,27.24,27.24,0,0,1,.21,3.28,26.28,26.28,0,0,1-3.71,13.47A71,71,0,0,1,438.9,201.56Z"/><path d="M328.32,194.46a45.65,45.65,0,0,1,22.28,5.78,69.29,69.29,0,0,1,33.21-14.45c-.07-.77-.11-1.56-.11-2.35a26.34,26.34,0,0,1,9.79-20.5,42,42,0,1,0-77.1,33.1A45.55,45.55,0,0,1,328.32,194.46Z"/><path d="M324.46,259.09c-.09-1.46-.15-2.93-.15-4.41a69.18,69.18,0,0,1,8.87-34c.41-.72.81-1.45,1.24-2.15s.9-1.43,1.37-2.13a70.57,70.57,0,0,1,10.74-12.7,40.78,40.78,0,0,0-18.21-4.28,41.28,41.28,0,0,0-9.56,1.13c-.85.21-1.69.43-2.51.68s-1.61.53-2.39.83a40.9,40.9,0,0,0-7.18,73A54.7,54.7,0,0,1,324.46,259.09Z"/><path d="M388.79,185.26c1.7-.13,3.42-.21,5.15-.21.77,0,1.54,0,2.31.06s1.68.06,2.51.12,1.66.12,2.49.2a69.25,69.25,0,0,1,16.88,4c.79.29,1.57.6,2.35.92s1.56.67,2.32,1q2.93,1.33,5.7,2.93a21.22,21.22,0,0,0,3-10.83c0-.27,0-.52,0-.78a23.16,23.16,0,0,0-.28-2.78,21.74,21.74,0,0,0-.58-2.54,21.42,21.42,0,0,0-20.49-15.29,21.37,21.37,0,0,0-12.75,4.25,22.09,22.09,0,0,0-2.1,1.77,21.34,21.34,0,0,0-6.54,15.37C388.7,184.05,388.74,184.66,388.79,185.26Z"/><path d="M499.93,239.18q-.92-.9-1.89-1.74a41.83,41.83,0,0,0-24.81-10.15l-.32,0c-.76,0-1.52-.07-2.29-.07h-.56c-.74,0-1.47,0-2.21.08-.49,0-1,.07-1.48.12a41.13,41.13,0,0,0-7.74,1.54c.4,1,.79,2,1.15,3.09.27.8.54,1.6.79,2.41.18.6.34,1.19.51,1.79.06.22.13.43.18.65.16.6.3,1.21.45,1.82.1.45.21.9.31,1.35l.24,1.16c.12.63.23,1.27.34,1.9.16,1,.29,1.92.41,2.89a69,69,0,0,1-8.82,43.5c-.42.72-.85,1.44-1.29,2.14s-.9,1.43-1.38,2.12a70.12,70.12,0,0,1-6.75,8.42,41.86,41.86,0,0,0,19.16,8.4c.94.15,1.88.26,2.83.35s1.78.13,2.68.15c.39,0,.78,0,1.18,0A41.94,41.94,0,0,0,501.68,241C501.12,240.36,500.53,239.77,499.93,239.18Z"/><path d="M437.47,302.41q.91-.84,1.8-1.71c.59-.59,1.18-1.2,1.75-1.81a64.44,64.44,0,0,0,6.43-8c.47-.69.92-1.4,1.37-2.11s.85-1.42,1.27-2.14a64.32,64.32,0,0,0,7.46-43.33c-.05-.25-.09-.5-.14-.75-.15-.82-.33-1.64-.52-2.45,0-.06,0-.13,0-.2-.09-.39-.18-.79-.28-1.18s-.19-.71-.29-1.07-.25-.89-.38-1.33a3.37,3.37,0,0,0-.1-.34c-.21-.69-.43-1.37-.66-2-.38-1.1-.78-2.19-1.21-3.26-.31-.78-.64-1.55-1-2.31s-.69-1.51-1.06-2.25a64.69,64.69,0,0,0-6.31-10.25c-.51-.67-1-1.34-1.57-2-.2-.26-.42-.51-.63-.76s-.66-.77-1-1.15c-.55-.63-1.12-1.24-1.7-1.85-.81-.85-1.64-1.67-2.49-2.47a65.28,65.28,0,0,0-8.38-6.7c-.7-.46-1.4-.92-2.12-1.36s-1.48-.88-2.24-1.3c-1.61-.9-3.27-1.74-5-2.51-.76-.34-1.53-.67-2.3-1s-1.54-.62-2.33-.9a64.26,64.26,0,0,0-15.56-3.52c-.83-.08-1.67-.14-2.51-.19s-1.72-.07-2.58-.09l-1.27,0c-1.39,0-2.76.06-4.13.14-.86.06-1.73.12-2.58.2s-1.67.2-2.5.32a64.36,64.36,0,0,0-29.67,12.37c-.68.52-1.36,1-2,1.6s-1.32,1.12-2,1.69a65.21,65.21,0,0,0-10.63,12.1c-.48.7-.94,1.43-1.39,2.15s-.87,1.44-1.28,2.17a64.19,64.19,0,0,0-8.45,31.89c0,.66,0,1.32.05,2a54.1,54.1,0,0,1,37.36-2.12c.8.24,1.59.51,2.38.79s1.56.58,2.33.89a54.53,54.53,0,0,1,29.93,30.39c.31.79.6,1.58.88,2.39s.54,1.65.78,2.49a53.94,53.94,0,0,1,.69,27.08A64.39,64.39,0,0,0,437.47,302.41Z"/><path d="M397.66,321.7c.28-.84.53-1.7.77-2.56a49.24,49.24,0,0,0,.29-24.37c-.22-.91-.46-1.81-.73-2.69s-.54-1.68-.84-2.5a49.42,49.42,0,0,0-27.72-28.77c-.77-.31-1.55-.61-2.34-.88s-1.61-.54-2.42-.78A49.09,49.09,0,0,0,329.73,262c-.8.38-1.59.79-2.37,1.21s-1.57.9-2.34,1.37a49.61,49.61,0,0,0-13.91,12.94c-.5.69-1,1.39-1.45,2.1s-.89,1.41-1.31,2.13a49.17,49.17,0,0,0,74.77,61.81c.67-.59,1.32-1.18,2-1.8s1.31-1.29,1.93-2a49.16,49.16,0,0,0,9.73-15.53C397.07,323.41,397.38,322.56,397.66,321.7Z"/></svg>